<svg xmlns="http://www.w3.org/2000/svg" width="900" height="480" viewBox="0 0 900 480">
<style>
  .title { font: 700 22px Arial, "Noto Sans CJK SC", sans-serif; fill: #111827; }
  .label { font: 13px Arial, "Noto Sans CJK SC", sans-serif; fill: #374151; }
  .value { font: 12px Arial, "Noto Sans CJK SC", sans-serif; fill: #111827; }
  .axis { stroke: #9ca3af; stroke-width: 1; }
  .grid { stroke: #e5e7eb; stroke-width: 1; }
</style>
<rect width="100%" height="100%" fill="#ffffff"/>
<text x="450.0" y="34" text-anchor="middle" class="title">OmniGIRL full-candidates：Gold 文件数分布</text>
<line x1="80" y1="345" x2="860" y2="345" class="axis"/>
<line x1="80" y1="80" x2="80" y2="345" class="axis"/>
<line x1="80" y1="278.8" x2="860" y2="278.8" class="grid"/>
<text x="70" y="282.8" text-anchor="end" class="label">99</text>
<line x1="80" y1="212.5" x2="860" y2="212.5" class="grid"/>
<text x="70" y="216.5" text-anchor="end" class="label">198</text>
<line x1="80" y1="146.2" x2="860" y2="146.2" class="grid"/>
<text x="70" y="150.2" text-anchor="end" class="label">296</text>
<line x1="80" y1="80.0" x2="860" y2="80.0" class="grid"/>
<text x="70" y="84.0" text-anchor="end" class="label">395</text>
<rect x="80.0" y="80.0" width="101.1" height="265.0" rx="3" fill="#f97316"/>
<text x="130.6" y="72.0" text-anchor="middle" class="value">395</text>
<text x="130.6" y="369.0" text-anchor="middle" class="label">1</text>
<rect x="193.1" y="273.9" width="101.1" height="71.1" rx="3" fill="#f97316"/>
<text x="243.7" y="265.9" text-anchor="middle" class="value">106</text>
<text x="243.7" y="369.0" text-anchor="middle" class="label">2</text>
<rect x="306.3" y="310.1" width="101.1" height="34.9" rx="3" fill="#f97316"/>
<text x="356.9" y="302.1" text-anchor="middle" class="value">52</text>
<text x="356.9" y="369.0" text-anchor="middle" class="label">3</text>
<rect x="419.4" y="314.8" width="101.1" height="30.2" rx="3" fill="#f97316"/>
<text x="470.0" y="306.8" text-anchor="middle" class="value">45</text>
<text x="470.0" y="369.0" text-anchor="middle" class="label">4-5</text>
<rect x="532.6" y="329.6" width="101.1" height="15.4" rx="3" fill="#f97316"/>
<text x="583.1" y="321.6" text-anchor="middle" class="value">23</text>
<text x="583.1" y="369.0" text-anchor="middle" class="label">6-10</text>
<rect x="645.7" y="342.3" width="101.1" height="2.7" rx="3" fill="#f97316"/>
<text x="696.3" y="334.3" text-anchor="middle" class="value">4</text>
<text x="696.3" y="369.0" text-anchor="middle" class="label">11-15</text>
<rect x="758.9" y="341.0" width="101.1" height="4.0" rx="3" fill="#f97316"/>
<text x="809.4" y="333.0" text-anchor="middle" class="value">6</text>
<text x="809.4" y="369.0" text-anchor="middle" class="label">&gt;15</text>
</svg>