<svg xmlns="http://www.w3.org/2000/svg" width="1100" height="520" viewBox="0 0 1100 520">
<style>
  .title { font: 700 22px Arial, "Noto Sans CJK SC", sans-serif; fill: #111827; }
  .label { font: 13px Arial, "Noto Sans CJK SC", sans-serif; fill: #374151; }
  .value { font: 12px Arial, "Noto Sans CJK SC", sans-serif; fill: #111827; }
  .axis { stroke: #9ca3af; stroke-width: 1; }
  .grid { stroke: #e5e7eb; stroke-width: 1; }
</style>
<rect width="100%" height="100%" fill="#ffffff"/>
<text x="550.0" y="34" text-anchor="middle" class="title">OmniGIRL full-candidates：三层 Gold 数量分布</text>
<line x1="90" y1="370" x2="1050" y2="370" class="axis"/>
<line x1="90" y1="80" x2="90" y2="370" class="axis"/>
<line x1="90" y1="297.5" x2="1050" y2="297.5" class="grid"/>
<text x="80" y="301.5" text-anchor="end" class="label">99</text>
<line x1="90" y1="225.0" x2="1050" y2="225.0" class="grid"/>
<text x="80" y="229.0" text-anchor="end" class="label">198</text>
<line x1="90" y1="152.5" x2="1050" y2="152.5" class="grid"/>
<text x="80" y="156.5" text-anchor="end" class="label">296</text>
<line x1="90" y1="80.0" x2="1050" y2="80.0" class="grid"/>
<text x="80" y="84.0" text-anchor="end" class="label">395</text>
<rect x="90.0" y="80.0" width="23.6" height="290.0" rx="2" fill="#2563eb"/>
<rect x="116.6" y="209.9" width="23.6" height="160.1" rx="2" fill="#16a34a"/>
<rect x="143.2" y="252.5" width="23.6" height="117.5" rx="2" fill="#f97316"/>
<text x="129.9" y="394.0" text-anchor="middle" class="label">1</text>
<rect x="187.8" y="292.2" width="23.6" height="77.8" rx="2" fill="#2563eb"/>
<rect x="214.4" y="273.1" width="23.6" height="96.9" rx="2" fill="#16a34a"/>
<rect x="241.0" y="302.5" width="23.6" height="67.5" rx="2" fill="#f97316"/>
<text x="227.7" y="394.0" text-anchor="middle" class="label">2</text>
<rect x="285.6" y="331.8" width="23.6" height="38.2" rx="2" fill="#2563eb"/>
<rect x="312.2" y="332.6" width="23.6" height="37.4" rx="2" fill="#16a34a"/>
<rect x="338.8" y="328.2" width="23.6" height="41.8" rx="2" fill="#f97316"/>
<text x="325.5" y="394.0" text-anchor="middle" class="label">3</text>
<rect x="383.4" y="337.0" width="23.6" height="33.0" rx="2" fill="#2563eb"/>
<rect x="410.0" y="339.9" width="23.6" height="30.1" rx="2" fill="#16a34a"/>
<rect x="436.6" y="324.5" width="23.6" height="45.5" rx="2" fill="#f97316"/>
<text x="423.3" y="394.0" text-anchor="middle" class="label">4-5</text>
<rect x="481.2" y="353.1" width="23.6" height="16.9" rx="2" fill="#2563eb"/>
<rect x="507.8" y="344.3" width="23.6" height="25.7" rx="2" fill="#16a34a"/>
<rect x="534.4" y="329.6" width="23.6" height="40.4" rx="2" fill="#f97316"/>
<text x="521.1" y="394.0" text-anchor="middle" class="label">6-10</text>
<rect x="579.0" y="367.1" width="23.6" height="2.9" rx="2" fill="#2563eb"/>
<rect x="605.6" y="367.1" width="23.6" height="2.9" rx="2" fill="#16a34a"/>
<rect x="632.2" y="353.8" width="23.6" height="16.2" rx="2" fill="#f97316"/>
<text x="618.9" y="394.0" text-anchor="middle" class="label">11-15</text>
<rect x="676.8" y="365.6" width="23.6" height="4.4" rx="2" fill="#2563eb"/>
<rect x="703.4" y="370.0" width="23.6" height="0.0" rx="2" fill="#16a34a"/>
<rect x="730.0" y="370.0" width="23.6" height="0.0" rx="2" fill="#f97316"/>
<text x="716.7" y="394.0" text-anchor="middle" class="label">&gt;15</text>
<rect x="774.6" y="370.0" width="23.6" height="0.0" rx="2" fill="#2563eb"/>
<rect x="801.2" y="262.8" width="23.6" height="107.2" rx="2" fill="#16a34a"/>
<rect x="827.8" y="253.3" width="23.6" height="116.7" rx="2" fill="#f97316"/>
<text x="814.5" y="394.0" text-anchor="middle" class="label">0</text>
<rect x="872.4" y="370.0" width="23.6" height="0.0" rx="2" fill="#2563eb"/>
<rect x="899.0" y="367.1" width="23.6" height="2.9" rx="2" fill="#16a34a"/>
<rect x="925.6" y="361.9" width="23.6" height="8.1" rx="2" fill="#f97316"/>
<text x="912.3" y="394.0" text-anchor="middle" class="label">16-30</text>
<rect x="970.2" y="370.0" width="23.6" height="0.0" rx="2" fill="#2563eb"/>
<rect x="996.8" y="370.0" width="23.6" height="0.0" rx="2" fill="#16a34a"/>
<rect x="1023.4" y="360.5" width="23.6" height="9.5" rx="2" fill="#f97316"/>
<text x="1010.1" y="394.0" text-anchor="middle" class="label">&gt;30</text>
<rect x="90" y="478" width="14" height="14" fill="#2563eb"/>
<text x="110" y="490" class="label">Gold File</text>
<rect x="275" y="478" width="14" height="14" fill="#16a34a"/>
<text x="295" y="490" class="label">Gold Module</text>
<rect x="460" y="478" width="14" height="14" fill="#f97316"/>
<text x="480" y="490" class="label">Gold Function</text>
</svg>