<svg xmlns="http://www.w3.org/2000/svg" width="900" height="480" viewBox="0 0 900 480">
<style>
  .title { font: 700 22px Arial, "Noto Sans CJK SC", sans-serif; fill: #111827; }
  .label { font: 13px Arial, "Noto Sans CJK SC", sans-serif; fill: #374151; }
  .value { font: 12px Arial, "Noto Sans CJK SC", sans-serif; fill: #111827; }
  .axis { stroke: #9ca3af; stroke-width: 1; }
  .grid { stroke: #e5e7eb; stroke-width: 1; }
</style>
<rect width="100%" height="100%" fill="#ffffff"/>
<text x="450.0" y="34" text-anchor="middle" class="title">OmniGIRL full-candidates：模态组合分布</text>
<line x1="80" y1="345" x2="860" y2="345" class="axis"/>
<line x1="80" y1="80" x2="80" y2="345" class="axis"/>
<line x1="80" y1="278.8" x2="860" y2="278.8" class="grid"/>
<text x="70" y="282.8" text-anchor="end" class="label">146</text>
<line x1="80" y1="212.5" x2="860" y2="212.5" class="grid"/>
<text x="70" y="216.5" text-anchor="end" class="label">292</text>
<line x1="80" y1="146.2" x2="860" y2="146.2" class="grid"/>
<text x="70" y="150.2" text-anchor="end" class="label">437</text>
<line x1="80" y1="80.0" x2="860" y2="80.0" class="grid"/>
<text x="70" y="84.0" text-anchor="end" class="label">583</text>
<rect x="80.0" y="80.0" width="252.0" height="265.0" rx="3" fill="#14b8a6"/>
<text x="206.0" y="72.0" text-anchor="middle" class="value">583</text>
<text x="206.0" y="369.0" text-anchor="middle" class="label">仅网页URL</text>
<rect x="344.0" y="326.8" width="252.0" height="18.2" rx="3" fill="#14b8a6"/>
<text x="470.0" y="318.8" text-anchor="middle" class="value">40</text>
<text x="470.0" y="369.0" text-anchor="middle" class="label">图片+网页URL</text>
<rect x="608.0" y="341.4" width="252.0" height="3.6" rx="3" fill="#14b8a6"/>
<text x="734.0" y="333.4" text-anchor="middle" class="value">8</text>
<text x="734.0" y="369.0" text-anchor="middle" class="label">仅图片</text>
</svg>