<svg xmlns="http://www.w3.org/2000/svg" width="900" height="480" viewBox="0 0 900 480">
<style>
  .title { font: 700 22px Arial, "Noto Sans CJK SC", sans-serif; fill: #111827; }
  .label { font: 13px Arial, "Noto Sans CJK SC", sans-serif; fill: #374151; }
  .value { font: 12px Arial, "Noto Sans CJK SC", sans-serif; fill: #111827; }
  .axis { stroke: #9ca3af; stroke-width: 1; }
  .grid { stroke: #e5e7eb; stroke-width: 1; }
</style>
<rect width="100%" height="100%" fill="#ffffff"/>
<text x="450.0" y="34" text-anchor="middle" class="title">OmniGIRL full-candidates：主修改文件类型/语言 Top 12</text>
<line x1="80" y1="345" x2="860" y2="345" class="axis"/>
<line x1="80" y1="80" x2="80" y2="345" class="axis"/>
<line x1="80" y1="278.8" x2="860" y2="278.8" class="grid"/>
<text x="70" y="282.8" text-anchor="end" class="label">74</text>
<line x1="80" y1="212.5" x2="860" y2="212.5" class="grid"/>
<text x="70" y="216.5" text-anchor="end" class="label">148</text>
<line x1="80" y1="146.2" x2="860" y2="146.2" class="grid"/>
<text x="70" y="150.2" text-anchor="end" class="label">221</text>
<line x1="80" y1="80.0" x2="860" y2="80.0" class="grid"/>
<text x="70" y="84.0" text-anchor="end" class="label">295</text>
<rect x="80.0" y="80.0" width="146.4" height="265.0" rx="3" fill="#0ea5e9"/>
<text x="153.2" y="72.0" text-anchor="middle" class="value">295</text>
<text x="153.2" y="369.0" text-anchor="middle" class="label">JavaScript</text>
<rect x="238.4" y="163.5" width="146.4" height="181.5" rx="3" fill="#0ea5e9"/>
<text x="311.6" y="155.5" text-anchor="middle" class="value">202</text>
<text x="311.6" y="369.0" text-anchor="middle" class="label">Python</text>
<rect x="396.8" y="269.5" width="146.4" height="75.5" rx="3" fill="#0ea5e9"/>
<text x="470.0" y="261.5" text-anchor="middle" class="value">84</text>
<text x="470.0" y="369.0" text-anchor="middle" class="label">TypeScript</text>
<rect x="555.2" y="301.0" width="146.4" height="44.0" rx="3" fill="#0ea5e9"/>
<text x="628.4" y="293.0" text-anchor="middle" class="value">49</text>
<text x="628.4" y="369.0" text-anchor="middle" class="label">Java</text>
<rect x="713.6" y="344.1" width="146.4" height="0.9" rx="3" fill="#0ea5e9"/>
<text x="786.8" y="336.1" text-anchor="middle" class="value">1</text>
<text x="786.8" y="369.0" text-anchor="middle" class="label">C</text>
</svg>