<svg xmlns="http://www.w3.org/2000/svg" width="900" height="480" viewBox="0 0 900 480">
<style>
  .title { font: 700 22px Arial, "Noto Sans CJK SC", sans-serif; fill: #111827; }
  .label { font: 13px Arial, "Noto Sans CJK SC", sans-serif; fill: #374151; }
  .value { font: 12px Arial, "Noto Sans CJK SC", sans-serif; fill: #111827; }
  .axis { stroke: #9ca3af; stroke-width: 1; }
  .grid { stroke: #e5e7eb; stroke-width: 1; }
</style>
<rect width="100%" height="100%" fill="#ffffff"/>
<text x="450.0" y="34" text-anchor="middle" class="title">OmniGIRL 原始源数据：网页 URL 数分布</text>
<line x1="80" y1="345" x2="860" y2="345" class="axis"/>
<line x1="80" y1="80" x2="80" y2="345" class="axis"/>
<line x1="80" y1="278.8" x2="860" y2="278.8" class="grid"/>
<text x="70" y="282.8" text-anchor="end" class="label">84</text>
<line x1="80" y1="212.5" x2="860" y2="212.5" class="grid"/>
<text x="70" y="216.5" text-anchor="end" class="label">168</text>
<line x1="80" y1="146.2" x2="860" y2="146.2" class="grid"/>
<text x="70" y="150.2" text-anchor="end" class="label">252</text>
<line x1="80" y1="80.0" x2="860" y2="80.0" class="grid"/>
<text x="70" y="84.0" text-anchor="end" class="label">336</text>
<rect x="80.0" y="164.4" width="120.0" height="180.6" rx="3" fill="#16a34a"/>
<text x="140.0" y="156.4" text-anchor="middle" class="value">229</text>
<text x="140.0" y="369.0" text-anchor="middle" class="label">0</text>
<rect x="212.0" y="80.0" width="120.0" height="265.0" rx="3" fill="#16a34a"/>
<text x="272.0" y="72.0" text-anchor="middle" class="value">336</text>
<text x="272.0" y="369.0" text-anchor="middle" class="label">1</text>
<rect x="344.0" y="225.1" width="120.0" height="119.9" rx="3" fill="#16a34a"/>
<text x="404.0" y="217.1" text-anchor="middle" class="value">152</text>
<text x="404.0" y="369.0" text-anchor="middle" class="label">2</text>
<rect x="476.0" y="276.4" width="120.0" height="68.6" rx="3" fill="#16a34a"/>
<text x="536.0" y="268.4" text-anchor="middle" class="value">87</text>
<text x="536.0" y="369.0" text-anchor="middle" class="label">3</text>
<rect x="608.0" y="280.3" width="120.0" height="64.7" rx="3" fill="#16a34a"/>
<text x="668.0" y="272.3" text-anchor="middle" class="value">82</text>
<text x="668.0" y="369.0" text-anchor="middle" class="label">4-5</text>
<rect x="740.0" y="287.4" width="120.0" height="57.6" rx="3" fill="#16a34a"/>
<text x="800.0" y="279.4" text-anchor="middle" class="value">73</text>
<text x="800.0" y="369.0" text-anchor="middle" class="label">&gt;5</text>
</svg>