<svg xmlns="http://www.w3.org/2000/svg" width="900" height="480" viewBox="0 0 900 480">
<style>
  .title { font: 700 22px Arial, "Noto Sans CJK SC", sans-serif; fill: #111827; }
  .label { font: 13px Arial, "Noto Sans CJK SC", sans-serif; fill: #374151; }
  .value { font: 12px Arial, "Noto Sans CJK SC", sans-serif; fill: #111827; }
  .axis { stroke: #9ca3af; stroke-width: 1; }
  .grid { stroke: #e5e7eb; stroke-width: 1; }
</style>
<rect width="100%" height="100%" fill="#ffffff"/>
<text x="450.0" y="34" text-anchor="middle" class="title">OmniGIRL 原始源数据：Gold 文件数分布</text>
<line x1="80" y1="345" x2="860" y2="345" class="axis"/>
<line x1="80" y1="80" x2="80" y2="345" class="axis"/>
<line x1="80" y1="278.8" x2="860" y2="278.8" class="grid"/>
<text x="70" y="282.8" text-anchor="end" class="label">150</text>
<line x1="80" y1="212.5" x2="860" y2="212.5" class="grid"/>
<text x="70" y="216.5" text-anchor="end" class="label">300</text>
<line x1="80" y1="146.2" x2="860" y2="146.2" class="grid"/>
<text x="70" y="150.2" text-anchor="end" class="label">451</text>
<line x1="80" y1="80.0" x2="860" y2="80.0" class="grid"/>
<text x="70" y="84.0" text-anchor="end" class="label">601</text>
<rect x="80.0" y="80.0" width="101.1" height="265.0" rx="3" fill="#f97316"/>
<text x="130.6" y="72.0" text-anchor="middle" class="value">601</text>
<text x="130.6" y="369.0" text-anchor="middle" class="label">1</text>
<rect x="193.1" y="273.6" width="101.1" height="71.4" rx="3" fill="#f97316"/>
<text x="243.7" y="265.6" text-anchor="middle" class="value">162</text>
<text x="243.7" y="369.0" text-anchor="middle" class="label">2</text>
<rect x="306.3" y="312.8" width="101.1" height="32.2" rx="3" fill="#f97316"/>
<text x="356.9" y="304.8" text-anchor="middle" class="value">73</text>
<text x="356.9" y="369.0" text-anchor="middle" class="label">3</text>
<rect x="419.4" y="316.8" width="101.1" height="28.2" rx="3" fill="#f97316"/>
<text x="470.0" y="308.8" text-anchor="middle" class="value">64</text>
<text x="470.0" y="369.0" text-anchor="middle" class="label">4-5</text>
<rect x="532.6" y="326.5" width="101.1" height="18.5" rx="3" fill="#f97316"/>
<text x="583.1" y="318.5" text-anchor="middle" class="value">42</text>
<text x="583.1" y="369.0" text-anchor="middle" class="label">6-10</text>
<rect x="645.7" y="341.0" width="101.1" height="4.0" rx="3" fill="#f97316"/>
<text x="696.3" y="333.0" text-anchor="middle" class="value">9</text>
<text x="696.3" y="369.0" text-anchor="middle" class="label">11-15</text>
<rect x="758.9" y="341.5" width="101.1" height="3.5" rx="3" fill="#f97316"/>
<text x="809.4" y="333.5" text-anchor="middle" class="value">8</text>
<text x="809.4" y="369.0" text-anchor="middle" class="label">&gt;15</text>
</svg>