<svg xmlns="http://www.w3.org/2000/svg" width="900" height="480" viewBox="0 0 900 480">
<style>
  .title { font: 700 22px Arial, "Noto Sans CJK SC", sans-serif; fill: #111827; }
  .label { font: 13px Arial, "Noto Sans CJK SC", sans-serif; fill: #374151; }
  .value { font: 12px Arial, "Noto Sans CJK SC", sans-serif; fill: #111827; }
  .axis { stroke: #9ca3af; stroke-width: 1; }
  .grid { stroke: #e5e7eb; stroke-width: 1; }
</style>
<rect width="100%" height="100%" fill="#ffffff"/>
<text x="450.0" y="34" text-anchor="middle" class="title">OmniGIRL 原始源数据：主修改文件类型/语言 Top 12</text>
<line x1="80" y1="345" x2="860" y2="345" class="axis"/>
<line x1="80" y1="80" x2="80" y2="345" class="axis"/>
<line x1="80" y1="278.8" x2="860" y2="278.8" class="grid"/>
<text x="70" y="282.8" text-anchor="end" class="label">94</text>
<line x1="80" y1="212.5" x2="860" y2="212.5" class="grid"/>
<text x="70" y="216.5" text-anchor="end" class="label">187</text>
<line x1="80" y1="146.2" x2="860" y2="146.2" class="grid"/>
<text x="70" y="150.2" text-anchor="end" class="label">280</text>
<line x1="80" y1="80.0" x2="860" y2="80.0" class="grid"/>
<text x="70" y="84.0" text-anchor="end" class="label">374</text>
<rect x="80.0" y="80.0" width="146.4" height="265.0" rx="3" fill="#0ea5e9"/>
<text x="153.2" y="72.0" text-anchor="middle" class="value">374</text>
<text x="153.2" y="369.0" text-anchor="middle" class="label">Python</text>
<rect x="238.4" y="85.0" width="146.4" height="260.0" rx="3" fill="#0ea5e9"/>
<text x="311.6" y="77.0" text-anchor="middle" class="value">367</text>
<text x="311.6" y="369.0" text-anchor="middle" class="label">JavaScript</text>
<rect x="396.8" y="264.9" width="146.4" height="80.1" rx="3" fill="#0ea5e9"/>
<text x="470.0" y="256.9" text-anchor="middle" class="value">113</text>
<text x="470.0" y="369.0" text-anchor="middle" class="label">TypeScript</text>
<rect x="555.2" y="271.3" width="146.4" height="73.7" rx="3" fill="#0ea5e9"/>
<text x="628.4" y="263.3" text-anchor="middle" class="value">104</text>
<text x="628.4" y="369.0" text-anchor="middle" class="label">Java</text>
<rect x="713.6" y="344.3" width="146.4" height="0.7" rx="3" fill="#0ea5e9"/>
<text x="786.8" y="336.3" text-anchor="middle" class="value">1</text>
<text x="786.8" y="369.0" text-anchor="middle" class="label">C</text>
</svg>