<svg xmlns="http://www.w3.org/2000/svg" width="900" height="480" viewBox="0 0 900 480">
<style>
  .title { font: 700 22px Arial, "Noto Sans CJK SC", sans-serif; fill: #111827; }
  .label { font: 13px Arial, "Noto Sans CJK SC", sans-serif; fill: #374151; }
  .value { font: 12px Arial, "Noto Sans CJK SC", sans-serif; fill: #111827; }
  .axis { stroke: #9ca3af; stroke-width: 1; }
  .grid { stroke: #e5e7eb; stroke-width: 1; }
</style>
<rect width="100%" height="100%" fill="#ffffff"/>
<text x="450.0" y="34" text-anchor="middle" class="title">OmniGIRL unified60 子集：Hunk 数分布</text>
<line x1="80" y1="345" x2="860" y2="345" class="axis"/>
<line x1="80" y1="80" x2="80" y2="345" class="axis"/>
<line x1="80" y1="278.8" x2="860" y2="278.8" class="grid"/>
<text x="70" y="282.8" text-anchor="end" class="label">10</text>
<line x1="80" y1="212.5" x2="860" y2="212.5" class="grid"/>
<text x="70" y="216.5" text-anchor="end" class="label">21</text>
<line x1="80" y1="146.2" x2="860" y2="146.2" class="grid"/>
<text x="70" y="150.2" text-anchor="end" class="label">32</text>
<line x1="80" y1="80.0" x2="860" y2="80.0" class="grid"/>
<text x="70" y="84.0" text-anchor="end" class="label">42</text>
<rect x="80.0" y="80.0" width="146.4" height="265.0" rx="3" fill="#9333ea"/>
<text x="153.2" y="72.0" text-anchor="middle" class="value">42</text>
<text x="153.2" y="369.0" text-anchor="middle" class="label">1</text>
<rect x="238.4" y="269.3" width="146.4" height="75.7" rx="3" fill="#9333ea"/>
<text x="311.6" y="261.3" text-anchor="middle" class="value">12</text>
<text x="311.6" y="369.0" text-anchor="middle" class="label">2</text>
<rect x="396.8" y="338.7" width="146.4" height="6.3" rx="3" fill="#9333ea"/>
<text x="470.0" y="330.7" text-anchor="middle" class="value">1</text>
<text x="470.0" y="369.0" text-anchor="middle" class="label">3</text>
<rect x="555.2" y="326.1" width="146.4" height="18.9" rx="3" fill="#9333ea"/>
<text x="628.4" y="318.1" text-anchor="middle" class="value">3</text>
<text x="628.4" y="369.0" text-anchor="middle" class="label">4-5</text>
<rect x="713.6" y="332.4" width="146.4" height="12.6" rx="3" fill="#9333ea"/>
<text x="786.8" y="324.4" text-anchor="middle" class="value">2</text>
<text x="786.8" y="369.0" text-anchor="middle" class="label">6-10</text>
</svg>