<svg xmlns="http://www.w3.org/2000/svg" width="900" height="480" viewBox="0 0 900 480">
<style>
  .title { font: 700 22px Arial, "Noto Sans CJK SC", sans-serif; fill: #111827; }
  .label { font: 13px Arial, "Noto Sans CJK SC", sans-serif; fill: #374151; }
  .value { font: 12px Arial, "Noto Sans CJK SC", sans-serif; fill: #111827; }
  .axis { stroke: #9ca3af; stroke-width: 1; }
  .grid { stroke: #e5e7eb; stroke-width: 1; }
</style>
<rect width="100%" height="100%" fill="#ffffff"/>
<text x="450.0" y="34" text-anchor="middle" class="title">OmniGIRL full-candidates：Hunk 数分布</text>
<line x1="80" y1="345" x2="860" y2="345" class="axis"/>
<line x1="80" y1="80" x2="80" y2="345" class="axis"/>
<line x1="80" y1="278.8" x2="860" y2="278.8" class="grid"/>
<text x="70" y="282.8" text-anchor="end" class="label">52</text>
<line x1="80" y1="212.5" x2="860" y2="212.5" class="grid"/>
<text x="70" y="216.5" text-anchor="end" class="label">104</text>
<line x1="80" y1="146.2" x2="860" y2="146.2" class="grid"/>
<text x="70" y="150.2" text-anchor="end" class="label">155</text>
<line x1="80" y1="80.0" x2="860" y2="80.0" class="grid"/>
<text x="70" y="84.0" text-anchor="end" class="label">207</text>
<rect x="80.0" y="80.0" width="87.0" height="265.0" rx="3" fill="#9333ea"/>
<text x="123.5" y="72.0" text-anchor="middle" class="value">207</text>
<text x="123.5" y="369.0" text-anchor="middle" class="label">1</text>
<rect x="179.0" y="181.1" width="87.0" height="163.9" rx="3" fill="#9333ea"/>
<text x="222.5" y="173.1" text-anchor="middle" class="value">128</text>
<text x="222.5" y="369.0" text-anchor="middle" class="label">2</text>
<rect x="278.0" y="265.6" width="87.0" height="79.4" rx="3" fill="#9333ea"/>
<text x="321.5" y="257.6" text-anchor="middle" class="value">62</text>
<text x="321.5" y="369.0" text-anchor="middle" class="label">3</text>
<rect x="377.0" y="237.5" width="87.0" height="107.5" rx="3" fill="#9333ea"/>
<text x="420.5" y="229.5" text-anchor="middle" class="value">84</text>
<text x="420.5" y="369.0" text-anchor="middle" class="label">4-5</text>
<rect x="476.0" y="245.1" width="87.0" height="99.9" rx="3" fill="#9333ea"/>
<text x="519.5" y="237.1" text-anchor="middle" class="value">78</text>
<text x="519.5" y="369.0" text-anchor="middle" class="label">6-10</text>
<rect x="575.0" y="301.5" width="87.0" height="43.5" rx="3" fill="#9333ea"/>
<text x="618.5" y="293.5" text-anchor="middle" class="value">34</text>
<text x="618.5" y="369.0" text-anchor="middle" class="label">11-15</text>
<rect x="674.0" y="310.4" width="87.0" height="34.6" rx="3" fill="#9333ea"/>
<text x="717.5" y="302.4" text-anchor="middle" class="value">27</text>
<text x="717.5" y="369.0" text-anchor="middle" class="label">16-30</text>
<rect x="773.0" y="330.9" width="87.0" height="14.1" rx="3" fill="#9333ea"/>
<text x="816.5" y="322.9" text-anchor="middle" class="value">11</text>
<text x="816.5" y="369.0" text-anchor="middle" class="label">&gt;30</text>
</svg>