<svg xmlns="http://www.w3.org/2000/svg" width="900" height="480" viewBox="0 0 900 480">
<style>
  .title { font: 700 22px Arial, "Noto Sans CJK SC", sans-serif; fill: #111827; }
  .label { font: 13px Arial, "Noto Sans CJK SC", sans-serif; fill: #374151; }
  .value { font: 12px Arial, "Noto Sans CJK SC", sans-serif; fill: #111827; }
  .axis { stroke: #9ca3af; stroke-width: 1; }
  .grid { stroke: #e5e7eb; stroke-width: 1; }
</style>
<rect width="100%" height="100%" fill="#ffffff"/>
<text x="450.0" y="34" text-anchor="middle" class="title">OmniGIRL unified60 子集：主修改文件类型/语言 Top 12</text>
<line x1="80" y1="345" x2="860" y2="345" class="axis"/>
<line x1="80" y1="80" x2="80" y2="345" class="axis"/>
<line x1="80" y1="278.8" x2="860" y2="278.8" class="grid"/>
<text x="70" y="282.8" text-anchor="end" class="label">7</text>
<line x1="80" y1="212.5" x2="860" y2="212.5" class="grid"/>
<text x="70" y="216.5" text-anchor="end" class="label">14</text>
<line x1="80" y1="146.2" x2="860" y2="146.2" class="grid"/>
<text x="70" y="150.2" text-anchor="end" class="label">21</text>
<line x1="80" y1="80.0" x2="860" y2="80.0" class="grid"/>
<text x="70" y="84.0" text-anchor="end" class="label">28</text>
<rect x="80.0" y="80.0" width="186.0" height="265.0" rx="3" fill="#0ea5e9"/>
<text x="173.0" y="72.0" text-anchor="middle" class="value">28</text>
<text x="173.0" y="369.0" text-anchor="middle" class="label">JavaScript</text>
<rect x="278.0" y="203.0" width="186.0" height="142.0" rx="3" fill="#0ea5e9"/>
<text x="371.0" y="195.0" text-anchor="middle" class="value">15</text>
<text x="371.0" y="369.0" text-anchor="middle" class="label">Java</text>
<rect x="476.0" y="203.0" width="186.0" height="142.0" rx="3" fill="#0ea5e9"/>
<text x="569.0" y="195.0" text-anchor="middle" class="value">15</text>
<text x="569.0" y="369.0" text-anchor="middle" class="label">Python</text>
<rect x="674.0" y="326.1" width="186.0" height="18.9" rx="3" fill="#0ea5e9"/>
<text x="767.0" y="318.1" text-anchor="middle" class="value">2</text>
<text x="767.0" y="369.0" text-anchor="middle" class="label">TypeScript</text>
</svg>