<svg xmlns="http://www.w3.org/2000/svg" width="900" height="480" viewBox="0 0 900 480">
<style>
  .title { font: 700 22px Arial, "Noto Sans CJK SC", sans-serif; fill: #111827; }
  .label { font: 13px Arial, "Noto Sans CJK SC", sans-serif; fill: #374151; }
  .value { font: 12px Arial, "Noto Sans CJK SC", sans-serif; fill: #111827; }
  .axis { stroke: #9ca3af; stroke-width: 1; }
  .grid { stroke: #e5e7eb; stroke-width: 1; }
</style>
<rect width="100%" height="100%" fill="#ffffff"/>
<text x="450.0" y="34" text-anchor="middle" class="title">OmniGIRL full-candidates：图片数分布</text>
<line x1="80" y1="345" x2="860" y2="345" class="axis"/>
<line x1="80" y1="80" x2="80" y2="345" class="axis"/>
<line x1="80" y1="278.8" x2="860" y2="278.8" class="grid"/>
<text x="70" y="282.8" text-anchor="end" class="label">146</text>
<line x1="80" y1="212.5" x2="860" y2="212.5" class="grid"/>
<text x="70" y="216.5" text-anchor="end" class="label">292</text>
<line x1="80" y1="146.2" x2="860" y2="146.2" class="grid"/>
<text x="70" y="150.2" text-anchor="end" class="label">437</text>
<line x1="80" y1="80.0" x2="860" y2="80.0" class="grid"/>
<text x="70" y="84.0" text-anchor="end" class="label">583</text>
<rect x="80.0" y="80.0" width="120.0" height="265.0" rx="3" fill="#2563eb"/>
<text x="140.0" y="72.0" text-anchor="middle" class="value">583</text>
<text x="140.0" y="369.0" text-anchor="middle" class="label">0</text>
<rect x="212.0" y="332.7" width="120.0" height="12.3" rx="3" fill="#2563eb"/>
<text x="272.0" y="324.7" text-anchor="middle" class="value">27</text>
<text x="272.0" y="369.0" text-anchor="middle" class="label">1</text>
<rect x="344.0" y="337.7" width="120.0" height="7.3" rx="3" fill="#2563eb"/>
<text x="404.0" y="329.7" text-anchor="middle" class="value">16</text>
<text x="404.0" y="369.0" text-anchor="middle" class="label">2</text>
<rect x="476.0" y="344.1" width="120.0" height="0.9" rx="3" fill="#2563eb"/>
<text x="536.0" y="336.1" text-anchor="middle" class="value">2</text>
<text x="536.0" y="369.0" text-anchor="middle" class="label">3</text>
<rect x="608.0" y="344.1" width="120.0" height="0.9" rx="3" fill="#2563eb"/>
<text x="668.0" y="336.1" text-anchor="middle" class="value">2</text>
<text x="668.0" y="369.0" text-anchor="middle" class="label">4-5</text>
<rect x="740.0" y="344.5" width="120.0" height="0.5" rx="3" fill="#2563eb"/>
<text x="800.0" y="336.5" text-anchor="middle" class="value">1</text>
<text x="800.0" y="369.0" text-anchor="middle" class="label">&gt;5</text>
</svg>