<svg xmlns="http://www.w3.org/2000/svg" width="980" height="520" viewBox="0 0 980 520">
<style>
  .title { font: 700 22px Arial, "Noto Sans CJK SC", sans-serif; fill: #111827; }
  .label { font: 13px Arial, "Noto Sans CJK SC", sans-serif; fill: #374151; }
  .value { font: 12px Arial, "Noto Sans CJK SC", sans-serif; fill: #111827; }
  .axis { stroke: #9ca3af; stroke-width: 1; }
  .grid { stroke: #e5e7eb; stroke-width: 1; }
</style>
<rect width="100%" height="100%" fill="#ffffff"/>
<text x="490.0" y="34" text-anchor="middle" class="title">OmniGIRL unified60 子集：三层 Gold 数量分布</text>
<line x1="90" y1="370" x2="930" y2="370" class="axis"/>
<line x1="90" y1="80" x2="90" y2="370" class="axis"/>
<line x1="90" y1="297.5" x2="930" y2="297.5" class="grid"/>
<text x="80" y="301.5" text-anchor="end" class="label">14</text>
<line x1="90" y1="225.0" x2="930" y2="225.0" class="grid"/>
<text x="80" y="229.0" text-anchor="end" class="label">27</text>
<line x1="90" y1="152.5" x2="930" y2="152.5" class="grid"/>
<text x="80" y="156.5" text-anchor="end" class="label">40</text>
<line x1="90" y1="80.0" x2="930" y2="80.0" class="grid"/>
<text x="80" y="84.0" text-anchor="end" class="label">54</text>
<rect x="90.0" y="80.0" width="48.2" height="290.0" rx="2" fill="#2563eb"/>
<rect x="141.2" y="219.6" width="48.2" height="150.4" rx="2" fill="#16a34a"/>
<rect x="192.4" y="246.5" width="48.2" height="123.5" rx="2" fill="#f97316"/>
<text x="166.8" y="394.0" text-anchor="middle" class="label">1</text>
<rect x="261.6" y="348.5" width="48.2" height="21.5" rx="2" fill="#2563eb"/>
<rect x="312.8" y="310.9" width="48.2" height="59.1" rx="2" fill="#16a34a"/>
<rect x="364.0" y="300.2" width="48.2" height="69.8" rx="2" fill="#f97316"/>
<text x="338.4" y="394.0" text-anchor="middle" class="label">2</text>
<rect x="433.2" y="359.3" width="48.2" height="10.7" rx="2" fill="#2563eb"/>
<rect x="484.4" y="370.0" width="48.2" height="0.0" rx="2" fill="#16a34a"/>
<rect x="535.6" y="353.9" width="48.2" height="16.1" rx="2" fill="#f97316"/>
<text x="510.0" y="394.0" text-anchor="middle" class="label">3</text>
<rect x="604.8" y="370.0" width="48.2" height="0.0" rx="2" fill="#2563eb"/>
<rect x="656.0" y="262.6" width="48.2" height="107.4" rx="2" fill="#16a34a"/>
<rect x="707.2" y="262.6" width="48.2" height="107.4" rx="2" fill="#f97316"/>
<text x="681.6" y="394.0" text-anchor="middle" class="label">0</text>
<rect x="776.4" y="370.0" width="48.2" height="0.0" rx="2" fill="#2563eb"/>
<rect x="827.6" y="364.6" width="48.2" height="5.4" rx="2" fill="#16a34a"/>
<rect x="878.8" y="364.6" width="48.2" height="5.4" rx="2" fill="#f97316"/>
<text x="853.2" y="394.0" text-anchor="middle" class="label">6-10</text>
<rect x="90" y="478" width="14" height="14" fill="#2563eb"/>
<text x="110" y="490" class="label">Gold File</text>
<rect x="275" y="478" width="14" height="14" fill="#16a34a"/>
<text x="295" y="490" class="label">Gold Module</text>
<rect x="460" y="478" width="14" height="14" fill="#f97316"/>
<text x="480" y="490" class="label">Gold Function</text>
</svg>