<svg xmlns="http://www.w3.org/2000/svg" width="900" height="480" viewBox="0 0 900 480">
<style>
  .title { font: 700 22px Arial, "Noto Sans CJK SC", sans-serif; fill: #111827; }
  .label { font: 13px Arial, "Noto Sans CJK SC", sans-serif; fill: #374151; }
  .value { font: 12px Arial, "Noto Sans CJK SC", sans-serif; fill: #111827; }
  .axis { stroke: #9ca3af; stroke-width: 1; }
  .grid { stroke: #e5e7eb; stroke-width: 1; }
</style>
<rect width="100%" height="100%" fill="#ffffff"/>
<text x="450.0" y="34" text-anchor="middle" class="title">OmniGIRL unified60 子集：Gold 文件数分布</text>
<line x1="80" y1="345" x2="860" y2="345" class="axis"/>
<line x1="80" y1="80" x2="80" y2="345" class="axis"/>
<line x1="80" y1="278.8" x2="860" y2="278.8" class="grid"/>
<text x="70" y="282.8" text-anchor="end" class="label">14</text>
<line x1="80" y1="212.5" x2="860" y2="212.5" class="grid"/>
<text x="70" y="216.5" text-anchor="end" class="label">27</text>
<line x1="80" y1="146.2" x2="860" y2="146.2" class="grid"/>
<text x="70" y="150.2" text-anchor="end" class="label">40</text>
<line x1="80" y1="80.0" x2="860" y2="80.0" class="grid"/>
<text x="70" y="84.0" text-anchor="end" class="label">54</text>
<rect x="80.0" y="80.0" width="252.0" height="265.0" rx="3" fill="#f97316"/>
<text x="206.0" y="72.0" text-anchor="middle" class="value">54</text>
<text x="206.0" y="369.0" text-anchor="middle" class="label">1</text>
<rect x="344.0" y="325.4" width="252.0" height="19.6" rx="3" fill="#f97316"/>
<text x="470.0" y="317.4" text-anchor="middle" class="value">4</text>
<text x="470.0" y="369.0" text-anchor="middle" class="label">2</text>
<rect x="608.0" y="335.2" width="252.0" height="9.8" rx="3" fill="#f97316"/>
<text x="734.0" y="327.2" text-anchor="middle" class="value">2</text>
<text x="734.0" y="369.0" text-anchor="middle" class="label">3</text>
</svg>