<svg xmlns="http://www.w3.org/2000/svg" width="990" height="520" viewBox="0 0 990 520">
<style>
  .title { font: 700 22px Arial, "Noto Sans CJK SC", sans-serif; fill: #111827; }
  .label { font: 13px Arial, "Noto Sans CJK SC", sans-serif; fill: #374151; }
  .value { font: 12px Arial, "Noto Sans CJK SC", sans-serif; fill: #111827; }
  .axis { stroke: #9ca3af; stroke-width: 1; }
  .grid { stroke: #e5e7eb; stroke-width: 1; }
</style>
<rect width="100%" height="100%" fill="#ffffff"/>
<text x="495.0" y="34" text-anchor="middle" class="title">SWE-bench Multimodal 60 子集：三层 Gold 数量分布</text>
<line x1="90" y1="370" x2="940" y2="370" class="axis"/>
<line x1="90" y1="80" x2="90" y2="370" class="axis"/>
<line x1="90" y1="297.5" x2="940" y2="297.5" class="grid"/>
<text x="80" y="301.5" text-anchor="end" class="label">8</text>
<line x1="90" y1="225.0" x2="940" y2="225.0" class="grid"/>
<text x="80" y="229.0" text-anchor="end" class="label">16</text>
<line x1="90" y1="152.5" x2="940" y2="152.5" class="grid"/>
<text x="80" y="156.5" text-anchor="end" class="label">23</text>
<line x1="90" y1="80.0" x2="940" y2="80.0" class="grid"/>
<text x="80" y="84.0" text-anchor="end" class="label">31</text>
<rect x="90.0" y="164.2" width="23.1" height="205.8" rx="2" fill="#2563eb"/>
<rect x="116.1" y="80.0" width="23.1" height="290.0" rx="2" fill="#16a34a"/>
<rect x="142.3" y="201.6" width="23.1" height="168.4" rx="2" fill="#f97316"/>
<text x="129.2" y="394.0" text-anchor="middle" class="label">1</text>
<rect x="186.4" y="276.5" width="23.1" height="93.5" rx="2" fill="#2563eb"/>
<rect x="212.6" y="285.8" width="23.1" height="84.2" rx="2" fill="#16a34a"/>
<rect x="238.7" y="267.1" width="23.1" height="102.9" rx="2" fill="#f97316"/>
<text x="225.7" y="394.0" text-anchor="middle" class="label">2</text>
<rect x="282.9" y="304.5" width="23.1" height="65.5" rx="2" fill="#2563eb"/>
<rect x="309.0" y="304.5" width="23.1" height="65.5" rx="2" fill="#16a34a"/>
<rect x="335.2" y="304.5" width="23.1" height="65.5" rx="2" fill="#f97316"/>
<text x="322.1" y="394.0" text-anchor="middle" class="label">3</text>
<rect x="379.3" y="323.2" width="23.1" height="46.8" rx="2" fill="#2563eb"/>
<rect x="405.5" y="313.9" width="23.1" height="56.1" rx="2" fill="#16a34a"/>
<rect x="431.6" y="313.9" width="23.1" height="56.1" rx="2" fill="#f97316"/>
<text x="418.6" y="394.0" text-anchor="middle" class="label">4-5</text>
<rect x="475.8" y="267.1" width="23.1" height="102.9" rx="2" fill="#2563eb"/>
<rect x="501.9" y="332.6" width="23.1" height="37.4" rx="2" fill="#16a34a"/>
<rect x="528.1" y="276.5" width="23.1" height="93.5" rx="2" fill="#f97316"/>
<text x="515.0" y="394.0" text-anchor="middle" class="label">6-10</text>
<rect x="572.2" y="351.3" width="23.1" height="18.7" rx="2" fill="#2563eb"/>
<rect x="598.4" y="360.6" width="23.1" height="9.4" rx="2" fill="#16a34a"/>
<rect x="624.5" y="332.6" width="23.1" height="37.4" rx="2" fill="#f97316"/>
<text x="611.4" y="394.0" text-anchor="middle" class="label">11-15</text>
<rect x="668.7" y="341.9" width="23.1" height="28.1" rx="2" fill="#2563eb"/>
<rect x="694.8" y="370.0" width="23.1" height="0.0" rx="2" fill="#16a34a"/>
<rect x="721.0" y="370.0" width="23.1" height="0.0" rx="2" fill="#f97316"/>
<text x="707.9" y="394.0" text-anchor="middle" class="label">&gt;15</text>
<rect x="765.1" y="370.0" width="23.1" height="0.0" rx="2" fill="#2563eb"/>
<rect x="791.3" y="360.6" width="23.1" height="9.4" rx="2" fill="#16a34a"/>
<rect x="817.4" y="351.3" width="23.1" height="18.7" rx="2" fill="#f97316"/>
<text x="804.3" y="394.0" text-anchor="middle" class="label">16-30</text>
<rect x="861.6" y="370.0" width="23.1" height="0.0" rx="2" fill="#2563eb"/>
<rect x="887.7" y="360.6" width="23.1" height="9.4" rx="2" fill="#16a34a"/>
<rect x="913.9" y="351.3" width="23.1" height="18.7" rx="2" fill="#f97316"/>
<text x="900.8" y="394.0" text-anchor="middle" class="label">&gt;30</text>
<rect x="90" y="478" width="14" height="14" fill="#2563eb"/>
<text x="110" y="490" class="label">Gold File</text>
<rect x="275" y="478" width="14" height="14" fill="#16a34a"/>
<text x="295" y="490" class="label">Gold Module</text>
<rect x="460" y="478" width="14" height="14" fill="#f97316"/>
<text x="480" y="490" class="label">Gold Function</text>
</svg>