<svg xmlns="http://www.w3.org/2000/svg" width="900" height="480" viewBox="0 0 900 480">
<style>
  .title { font: 700 22px Arial, "Noto Sans CJK SC", sans-serif; fill: #111827; }
  .label { font: 13px Arial, "Noto Sans CJK SC", sans-serif; fill: #374151; }
  .value { font: 12px Arial, "Noto Sans CJK SC", sans-serif; fill: #111827; }
  .axis { stroke: #9ca3af; stroke-width: 1; }
  .grid { stroke: #e5e7eb; stroke-width: 1; }
</style>
<rect width="100%" height="100%" fill="#ffffff"/>
<text x="450.0" y="34" text-anchor="middle" class="title">SWE-bench Multimodal 60 子集：网页 URL 数分布</text>
<line x1="80" y1="345" x2="860" y2="345" class="axis"/>
<line x1="80" y1="80" x2="80" y2="345" class="axis"/>
<line x1="80" y1="278.8" x2="860" y2="278.8" class="grid"/>
<text x="70" y="282.8" text-anchor="end" class="label">6</text>
<line x1="80" y1="212.5" x2="860" y2="212.5" class="grid"/>
<text x="70" y="216.5" text-anchor="end" class="label">12</text>
<line x1="80" y1="146.2" x2="860" y2="146.2" class="grid"/>
<text x="70" y="150.2" text-anchor="end" class="label">19</text>
<line x1="80" y1="80.0" x2="860" y2="80.0" class="grid"/>
<text x="70" y="84.0" text-anchor="end" class="label">25</text>
<rect x="80.0" y="239.0" width="120.0" height="106.0" rx="3" fill="#16a34a"/>
<text x="140.0" y="231.0" text-anchor="middle" class="value">10</text>
<text x="140.0" y="369.0" text-anchor="middle" class="label">0</text>
<rect x="212.0" y="80.0" width="120.0" height="265.0" rx="3" fill="#16a34a"/>
<text x="272.0" y="72.0" text-anchor="middle" class="value">25</text>
<text x="272.0" y="369.0" text-anchor="middle" class="label">1</text>
<rect x="344.0" y="228.4" width="120.0" height="116.6" rx="3" fill="#16a34a"/>
<text x="404.0" y="220.4" text-anchor="middle" class="value">11</text>
<text x="404.0" y="369.0" text-anchor="middle" class="label">2</text>
<rect x="476.0" y="302.6" width="120.0" height="42.4" rx="3" fill="#16a34a"/>
<text x="536.0" y="294.6" text-anchor="middle" class="value">4</text>
<text x="536.0" y="369.0" text-anchor="middle" class="label">3</text>
<rect x="608.0" y="260.2" width="120.0" height="84.8" rx="3" fill="#16a34a"/>
<text x="668.0" y="252.2" text-anchor="middle" class="value">8</text>
<text x="668.0" y="369.0" text-anchor="middle" class="label">4-5</text>
<rect x="740.0" y="323.8" width="120.0" height="21.2" rx="3" fill="#16a34a"/>
<text x="800.0" y="315.8" text-anchor="middle" class="value">2</text>
<text x="800.0" y="369.0" text-anchor="middle" class="label">&gt;5</text>
</svg>