<svg xmlns="http://www.w3.org/2000/svg" width="900" height="480" viewBox="0 0 900 480">
<style>
  .title { font: 700 22px Arial, "Noto Sans CJK SC", sans-serif; fill: #111827; }
  .label { font: 13px Arial, "Noto Sans CJK SC", sans-serif; fill: #374151; }
  .value { font: 12px Arial, "Noto Sans CJK SC", sans-serif; fill: #111827; }
  .axis { stroke: #9ca3af; stroke-width: 1; }
  .grid { stroke: #e5e7eb; stroke-width: 1; }
</style>
<rect width="100%" height="100%" fill="#ffffff"/>
<text x="450.0" y="34" text-anchor="middle" class="title">SWE-bench Multimodal 60 子集：主修改文件类型/语言 Top 12</text>
<line x1="80" y1="345" x2="860" y2="345" class="axis"/>
<line x1="80" y1="80" x2="80" y2="345" class="axis"/>
<line x1="80" y1="278.8" x2="860" y2="278.8" class="grid"/>
<text x="70" y="282.8" text-anchor="end" class="label">12</text>
<line x1="80" y1="212.5" x2="860" y2="212.5" class="grid"/>
<text x="70" y="216.5" text-anchor="end" class="label">24</text>
<line x1="80" y1="146.2" x2="860" y2="146.2" class="grid"/>
<text x="70" y="150.2" text-anchor="end" class="label">35</text>
<line x1="80" y1="80.0" x2="860" y2="80.0" class="grid"/>
<text x="70" y="84.0" text-anchor="end" class="label">47</text>
<rect x="80.0" y="80.0" width="120.0" height="265.0" rx="3" fill="#0ea5e9"/>
<text x="140.0" y="72.0" text-anchor="middle" class="value">47</text>
<text x="140.0" y="369.0" text-anchor="middle" class="label">JavaScript</text>
<rect x="212.0" y="305.5" width="120.0" height="39.5" rx="3" fill="#0ea5e9"/>
<text x="272.0" y="297.5" text-anchor="middle" class="value">7</text>
<text x="272.0" y="369.0" text-anchor="middle" class="label">JavaScript/JS</text>
<text x="272.0" y="385.0" text-anchor="middle" class="label">X</text>
<rect x="344.0" y="333.7" width="120.0" height="11.3" rx="3" fill="#0ea5e9"/>
<text x="404.0" y="325.7" text-anchor="middle" class="value">2</text>
<text x="404.0" y="369.0" text-anchor="middle" class="label">JSON</text>
<rect x="476.0" y="333.7" width="120.0" height="11.3" rx="3" fill="#0ea5e9"/>
<text x="536.0" y="325.7" text-anchor="middle" class="value">2</text>
<text x="536.0" y="369.0" text-anchor="middle" class="label">Markdown</text>
<rect x="608.0" y="339.4" width="120.0" height="5.6" rx="3" fill="#0ea5e9"/>
<text x="668.0" y="331.4" text-anchor="middle" class="value">1</text>
<text x="668.0" y="369.0" text-anchor="middle" class="label">SCSS</text>
<rect x="740.0" y="339.4" width="120.0" height="5.6" rx="3" fill="#0ea5e9"/>
<text x="800.0" y="331.4" text-anchor="middle" class="value">1</text>
<text x="800.0" y="369.0" text-anchor="middle" class="label">TypeScript</text>
</svg>