<svg xmlns="http://www.w3.org/2000/svg" width="900" height="480" viewBox="0 0 900 480">
<style>
  .title { font: 700 22px Arial, "Noto Sans CJK SC", sans-serif; fill: #111827; }
  .label { font: 13px Arial, "Noto Sans CJK SC", sans-serif; fill: #374151; }
  .value { font: 12px Arial, "Noto Sans CJK SC", sans-serif; fill: #111827; }
  .axis { stroke: #9ca3af; stroke-width: 1; }
  .grid { stroke: #e5e7eb; stroke-width: 1; }
</style>
<rect width="100%" height="100%" fill="#ffffff"/>
<text x="450.0" y="34" text-anchor="middle" class="title">SWE-bench Multimodal dev 全量：主修改文件类型/语言 Top 12</text>
<line x1="80" y1="345" x2="860" y2="345" class="axis"/>
<line x1="80" y1="80" x2="80" y2="345" class="axis"/>
<line x1="80" y1="278.8" x2="860" y2="278.8" class="grid"/>
<text x="70" y="282.8" text-anchor="end" class="label">20</text>
<line x1="80" y1="212.5" x2="860" y2="212.5" class="grid"/>
<text x="70" y="216.5" text-anchor="end" class="label">40</text>
<line x1="80" y1="146.2" x2="860" y2="146.2" class="grid"/>
<text x="70" y="150.2" text-anchor="end" class="label">59</text>
<line x1="80" y1="80.0" x2="860" y2="80.0" class="grid"/>
<text x="70" y="84.0" text-anchor="end" class="label">79</text>
<rect x="80.0" y="80.0" width="87.0" height="265.0" rx="3" fill="#0ea5e9"/>
<text x="123.5" y="72.0" text-anchor="middle" class="value">79</text>
<text x="123.5" y="369.0" text-anchor="middle" class="label">JavaScript</text>
<rect x="179.0" y="294.7" width="87.0" height="50.3" rx="3" fill="#0ea5e9"/>
<text x="222.5" y="286.7" text-anchor="middle" class="value">15</text>
<text x="222.5" y="369.0" text-anchor="middle" class="label">JavaScript/JS</text>
<text x="222.5" y="385.0" text-anchor="middle" class="label">X</text>
<rect x="278.0" y="338.3" width="87.0" height="6.7" rx="3" fill="#0ea5e9"/>
<text x="321.5" y="330.3" text-anchor="middle" class="value">2</text>
<text x="321.5" y="369.0" text-anchor="middle" class="label">JSON</text>
<rect x="377.0" y="338.3" width="87.0" height="6.7" rx="3" fill="#0ea5e9"/>
<text x="420.5" y="330.3" text-anchor="middle" class="value">2</text>
<text x="420.5" y="369.0" text-anchor="middle" class="label">Markdown</text>
<rect x="476.0" y="341.6" width="87.0" height="3.4" rx="3" fill="#0ea5e9"/>
<text x="519.5" y="333.6" text-anchor="middle" class="value">1</text>
<text x="519.5" y="369.0" text-anchor="middle" class="label">SCSS</text>
<rect x="575.0" y="341.6" width="87.0" height="3.4" rx="3" fill="#0ea5e9"/>
<text x="618.5" y="333.6" text-anchor="middle" class="value">1</text>
<text x="618.5" y="369.0" text-anchor="middle" class="label">TypeScript</text>
<rect x="674.0" y="341.6" width="87.0" height="3.4" rx="3" fill="#0ea5e9"/>
<text x="717.5" y="333.6" text-anchor="middle" class="value">1</text>
<text x="717.5" y="369.0" text-anchor="middle" class="label">MDX</text>
<rect x="773.0" y="341.6" width="87.0" height="3.4" rx="3" fill="#0ea5e9"/>
<text x="816.5" y="333.6" text-anchor="middle" class="value">1</text>
<text x="816.5" y="369.0" text-anchor="middle" class="label">FRAG</text>
</svg>