<svg xmlns="http://www.w3.org/2000/svg" width="900" height="480" viewBox="0 0 900 480">
<style>
  .title { font: 700 22px Arial, "Noto Sans CJK SC", sans-serif; fill: #111827; }
  .label { font: 13px Arial, "Noto Sans CJK SC", sans-serif; fill: #374151; }
  .value { font: 12px Arial, "Noto Sans CJK SC", sans-serif; fill: #111827; }
  .axis { stroke: #9ca3af; stroke-width: 1; }
  .grid { stroke: #e5e7eb; stroke-width: 1; }
</style>
<rect width="100%" height="100%" fill="#ffffff"/>
<text x="450.0" y="34" text-anchor="middle" class="title">SWE-bench Multimodal dev 全量：Hunk 数分布</text>
<line x1="80" y1="345" x2="860" y2="345" class="axis"/>
<line x1="80" y1="80" x2="80" y2="345" class="axis"/>
<line x1="80" y1="278.8" x2="860" y2="278.8" class="grid"/>
<text x="70" y="282.8" text-anchor="end" class="label">6</text>
<line x1="80" y1="212.5" x2="860" y2="212.5" class="grid"/>
<text x="70" y="216.5" text-anchor="end" class="label">11</text>
<line x1="80" y1="146.2" x2="860" y2="146.2" class="grid"/>
<text x="70" y="150.2" text-anchor="end" class="label">16</text>
<line x1="80" y1="80.0" x2="860" y2="80.0" class="grid"/>
<text x="70" y="84.0" text-anchor="end" class="label">22</text>
<rect x="80.0" y="80.0" width="87.0" height="265.0" rx="3" fill="#9333ea"/>
<text x="123.5" y="72.0" text-anchor="middle" class="value">22</text>
<text x="123.5" y="369.0" text-anchor="middle" class="label">1</text>
<rect x="179.0" y="152.3" width="87.0" height="192.7" rx="3" fill="#9333ea"/>
<text x="222.5" y="144.3" text-anchor="middle" class="value">16</text>
<text x="222.5" y="369.0" text-anchor="middle" class="label">2</text>
<rect x="278.0" y="296.8" width="87.0" height="48.2" rx="3" fill="#9333ea"/>
<text x="321.5" y="288.8" text-anchor="middle" class="value">4</text>
<text x="321.5" y="369.0" text-anchor="middle" class="label">3</text>
<rect x="377.0" y="128.2" width="87.0" height="216.8" rx="3" fill="#9333ea"/>
<text x="420.5" y="120.2" text-anchor="middle" class="value">18</text>
<text x="420.5" y="369.0" text-anchor="middle" class="label">4-5</text>
<rect x="476.0" y="140.2" width="87.0" height="204.8" rx="3" fill="#9333ea"/>
<text x="519.5" y="132.2" text-anchor="middle" class="value">17</text>
<text x="519.5" y="369.0" text-anchor="middle" class="label">6-10</text>
<rect x="575.0" y="200.5" width="87.0" height="144.5" rx="3" fill="#9333ea"/>
<text x="618.5" y="192.5" text-anchor="middle" class="value">12</text>
<text x="618.5" y="369.0" text-anchor="middle" class="label">11-15</text>
<rect x="674.0" y="236.6" width="87.0" height="108.4" rx="3" fill="#9333ea"/>
<text x="717.5" y="228.6" text-anchor="middle" class="value">9</text>
<text x="717.5" y="369.0" text-anchor="middle" class="label">16-30</text>
<rect x="773.0" y="296.8" width="87.0" height="48.2" rx="3" fill="#9333ea"/>
<text x="816.5" y="288.8" text-anchor="middle" class="value">4</text>
<text x="816.5" y="369.0" text-anchor="middle" class="label">&gt;30</text>
</svg>